# xmcd CD database file
#
# Track frame offsets:
#	150
#	36079
#	63264
#	86685
#	112100
#	139759
#	170458
#	198498
#	227570
#	265646
#	292977
#	320945
#
# Disc length: 4632 seconds
#
# Revision: 4
# Processed by: cddbd v1.5.2PL0 Copyright (c) Steve Scherf et al.
# Submitted via: CDex 1.51
#
DISCID=ac12160c
DTITLE=Various Artist - Edition Records Jazzwise
DYEAR=2010
DGENRE=Jazz
TTITLE0=Secret Quartet - Bloor Street
TTITLE1=Curios - Pursuit
TTITLE2=Ivo Neame - Birdbrained
TTITLE3=Troyka - Noonian Soong
TTITLE4=Tamco - River Deep Mountain High
TTITLE5=Dave Stapleton Quintet - Images
TTITLE6=Audun Automat - Bitter Pill
TTITLE7=Spin Marvel - The Reluctantly Politicised Mr James
TTITLE8=Paula Gardiner Trio - Beneath Rioja Skies
TTITLE9=Kevin Figes - The Grind
TTITLE10=Geoff Eales - Iolo's Dance
TTITLE11=Mark Lockheart - Long Way Gone
EXTD=YEAR: 2010
EXTT0=
EXTT1=
EXTT2=
EXTT3=
EXTT4=
EXTT5=
EXTT6=
EXTT7=
EXTT8=
EXTT9=
EXTT10=
EXTT11=
PLAYORDER=
